<?xml version="1.0" encoding="UTF-8"?>
<svg version="1.1" xmlns="http://www.w3.org/2000/svg" width="1563" height="1563">
<path d="M0 0 C13.80705913 4.65114124 24.68595972 12.34210883 34.875 22.5625 C35.52726563 23.15546875 36.17953125 23.7484375 36.8515625 24.359375 C59.91587783 45.63330968 70.70282415 81.3893326 72.01733398 111.86206055 C72.6826532 136.68202259 69.60604699 159.46881891 63.07397461 183.44018555 C62.77499268 184.55820557 62.47601074 185.67622559 62.16796875 186.828125 C61.8949292 187.81586914 61.62188965 188.80361328 61.34057617 189.82128906 C60.51906066 194.65819317 61.93501255 198.06583733 64.17578125 202.30859375 C64.89024414 203.67081055 64.89024414 203.67081055 65.61914062 205.06054688 C66.13669922 206.03056641 66.65425781 207.00058594 67.1875 208 C67.72439453 209.01771484 68.26128906 210.03542969 68.81445312 211.08398438 C72.92940724 218.8577425 77.13826929 226.57944573 81.37231445 234.28881836 C85.48223697 241.78951042 89.43990137 249.3635206 93.375 256.95703125 C96.79449181 263.53777199 100.30429273 270.06269692 103.875 276.5625 C107.96931602 284.01543463 111.96243985 291.51257117 115.875 299.0625 C119.83057985 306.69471577 123.86631554 314.2752295 128 321.8125 C131.91548032 328.95793065 135.80615324 336.11486084 139.625 343.3125 C140.05570801 344.11719727 140.48641602 344.92189453 140.93017578 345.75097656 C143.875 351.32846144 143.875 351.32846144 143.875 353.5625 C178.52386863 322.62319134 187.15981631 243.88801004 189.734375 200.40576172 C191.17595071 171.25890288 189.83795555 137.75475718 169.875 114.5625 C161.09946106 105.14170084 148.86031838 99.26013422 135.90139771 98.43716431 C130.0239547 98.29733871 124.14453307 98.50863829 118.27026367 98.69946289 C116.03828791 98.76614254 113.80681137 98.80783925 111.57421875 98.84765625 C110.26283936 98.88769775 108.95145996 98.92773926 107.6003418 98.96899414 C102.93643761 98.46008789 100.7247751 97.20355169 96.875 94.5625 C93.5745984 89.87805902 93.25921655 86.10455101 93.875 80.5625 C96.56953539 76.50804652 99.57886586 74.22968441 103.6875 71.6875 C108.22548846 68.77299215 111.97253223 65.82196657 115.5703125 61.8125 C116.875 60.5625 116.875 60.5625 118.875 60.5625 C119.14739502 59.97460693 119.41979004 59.38671387 119.70043945 58.78100586 C121.62848264 55.13932462 124.37386003 52.22587789 127.0625 49.125 C127.61486328 48.46951172 128.16722656 47.81402344 128.73632812 47.13867188 C132.77118684 42.46648356 137.11120453 37.54303571 143.2890625 35.93359375 C164.11568545 36.55912836 182.12872711 49.65196117 195.99609375 64.27734375 C201.04226222 69.86338982 205.03917937 76.10775069 208.875 82.5625 C209.26816406 83.21847168 209.66132812 83.87444336 210.06640625 84.55029297 C234.29081393 125.6538362 232.41520387 174.4994646 220.99023438 219.34814453 C180.75058494 370.2468299 180.75058494 370.2468299 136.87890625 399.671875 C132.01710844 401.83267403 127.59587512 401.13612504 122.6875 399.5 C115.0172978 394.21608293 111.12528503 386.05968733 106.8125 378.0625 C106.15201709 376.85298246 105.49054212 375.64400618 104.828125 374.43554688 C103.81694552 372.59076179 102.80626397 370.74573055 101.79855347 368.89904785 C98.71655615 363.25306922 95.55463166 357.65402752 92.375 352.0625 C83.7330927 336.81847261 75.23499752 321.49397987 66.7890625 306.140625 C54.3171776 283.15273722 54.3171776 283.15273722 41.05078125 260.625 C39.875 258.5625 39.875 258.5625 39.875 256.5625 C39.215 256.5625 38.555 256.5625 37.875 256.5625 C37.74327393 257.08787354 37.61154785 257.61324707 37.47583008 258.15454102 C35.05912299 266.97364313 31.29124619 275.17718723 27.5625 283.5 C27.21206635 284.28652954 26.86163269 285.07305908 26.50057983 285.88342285 C10.59287083 321.52022816 10.59287083 321.52022816 0.70410156 335.92041016 C-0.404544 337.72833857 -0.404544 337.72833857 0.3125 340.6875 C1.99361725 343.78075574 3.90724764 346.64521622 5.875 349.5625 C6.22578613 348.9862085 6.57657227 348.40991699 6.93798828 347.81616211 C7.43540527 346.99897705 7.93282227 346.18179199 8.4453125 345.33984375 C9.00532959 344.41977539 9.56534668 343.49970703 10.14233398 342.55175781 C11.39430569 340.49502942 12.64642467 338.43839066 13.89868164 336.38183594 C17.16111823 331.02354332 20.42131453 325.66391884 23.67578125 320.30078125 C24.28599121 319.2960376 24.89620117 318.29129395 25.52490234 317.25610352 C26.6811043 315.35220745 27.83643692 313.44778305 28.99072266 311.54272461 C30.61022838 308.8772578 32.23918497 306.21798753 33.875 303.5625 C34.50035645 302.54607422 35.12571289 301.52964844 35.77001953 300.48242188 C36.39376465 299.48275391 37.01750977 298.48308594 37.66015625 297.453125 C38.22742432 296.54079102 38.79469238 295.62845703 39.37915039 294.68847656 C40.875 292.5625 40.875 292.5625 42.875 291.5625 C44.75335578 294.44330131 46.59812185 297.34418579 48.4375 300.25 C48.97052734 301.06662109 49.50355469 301.88324219 50.05273438 302.72460938 C50.55224609 303.52060547 51.05175781 304.31660156 51.56640625 305.13671875 C52.03248291 305.86463623 52.49855957 306.59255371 52.97875977 307.3425293 C54.14694033 310.23609123 53.83110727 311.61353236 52.875 314.5625 C51.61914062 317.00341797 51.61914062 317.00341797 50.03125 319.5546875 C49.44907715 320.49916748 48.8669043 321.44364746 48.26708984 322.41674805 C47.6427002 323.41359619 47.01831055 324.41044434 46.375 325.4375 C45.08559459 327.52452776 43.79653171 329.6117672 42.5078125 331.69921875 C41.88036133 332.71032715 41.25291016 333.72143555 40.60644531 334.76318359 C38.45584431 338.2401705 36.34486712 341.73925411 34.25 345.25 C33.90573975 345.82411621 33.56147949 346.39823242 33.20678711 346.98974609 C31.13132605 350.4518689 29.06913973 353.92165888 27.01171875 357.39453125 C5.19779847 394.13321353 5.19779847 394.13321353 -5.125 400.5625 C-7.30859375 400.9609375 -7.30859375 400.9609375 -9.5625 400.9375 C-10.30371094 400.94523437 -11.04492188 400.95296875 -11.80859375 400.9609375 C-15.68038799 400.29496277 -18.3629533 398.44508882 -20.91381836 395.49072266 C-25.19509817 389.15139685 -29.02089559 382.64905199 -32.6875 375.9375 C-37.37549091 367.45674402 -42.14604639 359.03787735 -47.0625 350.6875 C-52.70553464 341.08587142 -58.13904044 331.38026819 -63.51928711 321.62939453 C-67.62227022 314.21334148 -71.82745979 306.86734825 -76.125 299.5625 C-81.74896361 290.00303137 -87.16155201 280.33955316 -92.51953125 270.62890625 C-96.62246932 263.21303683 -100.82755211 255.86719133 -105.125 248.5625 C-110.74679268 239.00672148 -116.15817401 229.34743904 -121.51293945 219.63989258 C-126.22913453 211.11378047 -131.0989226 202.68863876 -136.05541992 194.30029297 C-139.48918269 188.4613836 -142.75200289 182.56049927 -145.91162109 176.5690918 C-154.45744269 159.92820438 -154.45744269 159.92820438 -169.89916992 150.38818359 C-175.85361293 148.86408413 -181.88099133 148.69245869 -188 148.4375 C-190.56025925 148.317408 -193.12019264 148.19009646 -195.6796875 148.0546875 C-197.35780518 147.98290283 -197.35780518 147.98290283 -199.06982422 147.90966797 C-203.1202441 147.44940769 -206.04033786 146.3157376 -209.375 144 C-211.89292486 140.49289038 -212.68069154 136.85521717 -212.125 132.5625 C-209.34090932 127.21986522 -205.72333445 124.49800168 -200.8125 121.3125 C-200.10754395 120.84215332 -199.40258789 120.37180664 -198.67626953 119.88720703 C-197.21399427 118.91311829 -195.74846758 117.94389343 -194.27978516 116.97949219 C-192.25438472 115.64758372 -190.24042811 114.30037596 -188.23046875 112.9453125 C-185.14936575 110.87026759 -182.05566205 108.81531896 -178.95410156 106.77099609 C-177.72988882 105.96215292 -176.50789196 105.14994638 -175.28808594 104.33447266 C-153.4338608 89.72800096 -153.4338608 89.72800096 -141.125 90.5625 C-133.00844114 92.66679304 -128.02671358 98.84578691 -123.76123047 105.77929688 C-120.0078862 112.26222884 -116.56549451 118.90996487 -113.125 125.5625 C-112.04715027 127.63425782 -110.96902341 129.70587148 -109.890625 131.77734375 C-108.2517141 134.92924653 -106.61484893 138.08213929 -104.98364258 141.23803711 C-100.95600893 149.01862472 -96.7949783 156.71740168 -92.57421875 164.39453125 C-89.00352103 170.90635631 -85.5418135 177.46876629 -82.125 184.0625 C-78.21249523 191.61245632 -74.21931516 199.10956693 -70.125 206.5625 C-65.5071712 214.96839148 -61.0376912 223.4419162 -56.625 231.95703125 C-53.20550819 238.53777199 -49.69570727 245.06269692 -46.125 251.5625 C-41.51396208 259.95602996 -37.05000224 268.41656545 -32.64477539 276.91967773 C-28.5509687 284.7996329 -24.32593768 292.60315443 -20.04492188 300.3828125 C-13.125 312.96966628 -13.125 312.96966628 -13.125 315.5625 C-8.41783134 311.40562984 -5.74071711 306.8003927 -2.875 301.25 C-2.16102051 299.8731604 -2.16102051 299.8731604 -1.43261719 298.46850586 C6.57168507 282.62142912 12.30485882 265.58986874 17.3125 248.58203125 C18.24568527 245.43016247 19.30585739 242.49256782 20.6875 239.51171875 C22.93855734 234.20506962 23.83292801 230.14829381 21.8046875 224.67333984 C18.14055581 216.90984092 13.53549766 209.75439679 8.875 202.5625 C7.95532057 201.05367484 7.04159693 199.54118554 6.13671875 198.0234375 C2.0697655 191.31889228 -1.6771576 185.56931016 -9.0859375 182.2265625 C-12.52550095 181.47498694 -15.25193808 181.57563153 -18.75 181.9375 C-38.43017814 183.62080985 -38.43017814 183.62080985 -45.125 178.5625 C-46.30769329 176.19711341 -46.42911792 174.51434849 -46.5625 171.875 C-46.62308594 171.04613281 -46.68367187 170.21726562 -46.74609375 169.36328125 C-45.16053951 162.21332913 -38.37607503 157.99866333 -32.5625 154.25 C-27.3633476 150.79725563 -22.32713492 147.25371364 -17.4375 143.375 C3.28203801 127.23692505 3.28203801 127.23692505 15.875 128.5625 C23.77369083 131.03377357 28.42035942 136.88053912 32.875 143.5625 C32.26786148 118.42696535 28.09508733 92.78982173 10.28515625 73.8203125 C0.36984081 64.53173499 -13.3705308 60.23744838 -26.76953125 60.640625 C-28.26625424 60.66789099 -29.76300069 60.69389281 -31.25976562 60.71875 C-33.59708721 60.76186588 -35.93316563 60.8123657 -38.26977539 60.88476562 C-53.96735525 61.34924014 -53.96735525 61.34924014 -59.83276367 56.87329102 C-63.32877529 53.32708161 -63.37648926 49.34710576 -63.5859375 44.625 C-62.65445118 40.45699343 -59.77568805 38.03427238 -56.42578125 35.60546875 C-55.43964844 34.99316406 -54.45351563 34.38085938 -53.4375 33.75 C-44.57381524 27.98430215 -37.90459377 21.57345623 -31.32421875 13.31640625 C-29.22279644 10.68496269 -27.08044104 8.10723966 -24.875 5.5625 C-24.27171875 4.86125 -23.6684375 4.16 -23.046875 3.4375 C-16.12663001 -3.31395852 -8.79596577 -2.37905774 0 0 Z " fill="#696CFF" transform="translate(833.125,481.4375)"/>
<path d="M0 0 C10.47392149 9.31015244 17.04219138 23.76678668 23.8125 35.8125 C24.21017578 36.51938965 24.60785156 37.2262793 25.01757812 37.95458984 C27.97551727 43.22607784 30.89482151 48.51865651 33.8125 53.8125 C35.01940618 55.99876697 36.22644707 58.18495957 37.43359375 60.37109375 C40.51033716 65.94404476 43.58486034 71.51821781 46.65858459 77.09283447 C50.04410749 83.23287239 53.43120696 89.37203982 56.81854248 95.51107788 C58.48326642 98.52817918 60.14787732 101.54534284 61.8125 104.5625 C62.47916613 105.77083363 63.1458328 106.97916696 63.8125 108.1875 C75.8125 129.9375 87.8125 151.6875 99.8125 173.4375 C100.14248993 174.03560486 100.47247986 174.63370972 100.81246948 175.24993896 C101.47924433 176.45847219 102.14601272 177.66700897 102.81277466 178.87554932 C104.47773331 181.89335355 106.1428035 184.91109614 107.80810547 187.92871094 C110.82853943 193.40215657 113.84813704 198.87605542 116.86358643 204.35224915 C118.21903856 206.81369875 119.57502819 209.27485198 120.93115234 211.7359314 C121.59800415 212.94629898 122.2646731 214.15676732 122.93115234 215.36734009 C126.56663067 221.96946136 130.22311577 228.55858267 133.9296875 235.12109375 C134.42446091 235.99844681 134.42446091 235.99844681 134.92922974 236.89352417 C136.49708962 239.6733314 138.06917408 242.45056162 139.64892578 245.22363281 C140.19790527 246.19526367 140.74688477 247.16689453 141.3125 248.16796875 C141.7971875 249.02028076 142.281875 249.87259277 142.78125 250.75073242 C143.8125 252.8125 143.8125 252.8125 143.8125 254.8125 C144.4725 254.8125 145.1325 254.8125 145.8125 254.8125 C146.02777344 254.01070312 146.24304688 253.20890625 146.46484375 252.3828125 C148.21460696 247.74720793 150.71789736 243.85360405 153.375 239.6875 C154.54322503 237.83301202 155.70980034 235.9774841 156.875 234.12109375 C157.81859375 232.61844971 157.81859375 232.61844971 158.78125 231.08544922 C160.99086765 227.52509655 163.15715855 223.94100755 165.3125 220.34765625 C165.69155991 219.71702271 166.07061981 219.08638916 166.46116638 218.43664551 C167.97303777 215.92102679 169.48482623 213.40543707 170.9861145 210.88348389 C172.03895164 209.11577555 173.09889517 207.35250371 174.16015625 205.58984375 C174.76867432 204.57140381 175.37719238 203.55296387 176.00415039 202.50366211 C177.732775 199.9311457 179.54324674 197.91164526 181.8125 195.8125 C183.69085578 198.69330131 185.53562185 201.59418579 187.375 204.5 C187.90802734 205.31662109 188.44105469 206.13324219 188.99023438 206.97460938 C189.73950195 208.16860352 189.73950195 208.16860352 190.50390625 209.38671875 C191.20302124 210.47859497 191.20302124 210.47859497 191.91625977 211.5925293 C193.09230307 214.50556709 192.78937796 215.84219452 191.8125 218.8125 C190.39233398 221.52197266 190.39233398 221.52197266 188.55859375 224.4765625 C187.87684082 225.58539795 187.19508789 226.6942334 186.49267578 227.83666992 C185.7451333 229.03695665 184.99757429 230.23723308 184.25 231.4375 C182.69067873 233.96540239 181.13653304 236.49647568 179.58203125 239.02734375 C179.18473816 239.67256485 178.78744507 240.31778595 178.37811279 240.9825592 C174.30860855 247.6029058 170.37282204 254.29936807 166.4375 261 C160.48152669 271.1040651 154.39961611 281.10517099 147.8125 290.8125 C147.37083496 291.47314453 146.92916992 292.13378906 146.47412109 292.81445312 C145.30647729 294.51795974 144.06509212 296.17044646 142.8125 297.8125 C142.1525 297.8125 141.4925 297.8125 140.8125 297.8125 C140.8125 298.4725 140.8125 299.1325 140.8125 299.8125 C140.1525 299.8125 139.4925 299.8125 138.8125 299.8125 C138.8125 300.4725 138.8125 301.1325 138.8125 301.8125 C134.98731127 304.71037025 131.59607174 305.73002463 126.8125 305.8125 C121.38315387 303.28621722 118.30553806 300.5437168 115.125 295.4375 C114.70911621 294.79248535 114.29323242 294.1474707 113.86474609 293.48291016 C109.15510377 286.02786126 105.03268086 278.23552875 100.8671875 270.46875 C98.01535509 265.1593144 95.06435974 259.91331548 92.0625 254.6875 C91.57724854 253.84219727 91.09199707 252.99689453 90.59204102 252.12597656 C89.56108939 250.33171942 88.52957545 248.53778528 87.49755859 246.74414062 C84.28060445 241.14733023 81.07825665 235.54215678 77.875 229.9375 C77.53343872 229.34007996 77.19187744 228.74265991 76.83996582 228.12713623 C71.78152992 219.2786047 66.75341373 210.41335 61.74633789 201.53564453 C57.46200003 193.94579496 53.14125654 186.37705845 48.8125 178.8125 C43.42798335 169.40298701 38.07185275 159.97808554 32.74609375 150.53515625 C28.12245143 142.34437957 23.45625658 134.17821084 18.78375244 126.01525879 C14.22304814 118.04698821 9.6915998 110.06293931 5.1875 102.0625 C0.59970696 93.92434735 -4.05079491 85.82434509 -8.75 77.75 C-9.33410645 76.74420898 -9.91821289 75.73841797 -10.52001953 74.70214844 C-15.46057157 65.23367833 -15.46057157 65.23367833 -23 58.0625 C-23.62519531 57.67578125 -24.25039063 57.2890625 -24.89453125 56.890625 C-30.11205682 54.43741025 -35.32305971 53.55206845 -41.0390625 53.25 C-42.30234375 53.17523437 -43.565625 53.10046875 -44.8671875 53.0234375 C-47.5051861 52.88239599 -50.14320713 52.74177344 -52.78125 52.6015625 C-54.04195313 52.52679687 -55.30265625 52.45203125 -56.6015625 52.375 C-57.7457666 52.31441406 -58.8899707 52.25382813 -60.06884766 52.19140625 C-64.13829941 51.69698092 -67.08271012 50.57971519 -70.4375 48.25 C-73.06876396 44.58502519 -73.83860415 41.29623993 -73.1875 36.8125 C-70.51746566 31.92345064 -66.18431087 28.68421898 -61.66796875 25.5703125 C-60.79019775 24.96461426 -59.91242676 24.35891602 -59.00805664 23.73486328 C-54.12368602 20.40589814 -49.22682325 17.0971053 -44.3125 13.8125 C-43.31347656 13.13960937 -42.31445312 12.46671875 -41.28515625 11.7734375 C-11.80304427 -7.93202573 -11.80304427 -7.93202573 0 0 Z " fill="#696CFF" transform="translate(537.1875,539.1875)"/>
</svg>
