<?xml version="1.0" standalone="no"?>
<!DOCTYPE svg PUBLIC "-//W3C//DTD SVG 20010904//EN"
 "http://www.w3.org/TR/2001/REC-SVG-20010904/DTD/svg10.dtd">
<svg version="1.0" xmlns="http://www.w3.org/2000/svg"
 width="1563.000000pt" height="1563.000000pt" viewBox="0 0 1563.000000 1563.000000"
 preserveAspectRatio="xMidYMid meet">

<g transform="translate(0.000000,1563.000000) scale(0.100000,-0.100000)"
fill="#000000" stroke="none">
<path d="M8101 10752 c-36 -37 -97 -102 -134 -145 -37 -42 -98 -98 -135 -124
-105 -73 -122 -92 -122 -132 0 -46 30 -96 72 -117 24 -13 52 -16 117 -13 268
11 360 -6 485 -89 142 -94 241 -287 275 -537 14 -98 25 -265 18 -265 -3 0 -21
26 -40 58 -71 116 -149 154 -248 121 -51 -17 -391 -250 -463 -317 -45 -42 -59
-85 -43 -124 28 -67 74 -81 203 -62 139 21 203 1 265 -83 53 -71 219 -368 219
-392 0 -49 -96 -363 -162 -530 -58 -147 -175 -362 -197 -361 -3 0 -260 477
-570 1060 -310 582 -580 1080 -600 1107 -76 99 -156 115 -283 56 -86 -40 -478
-304 -512 -344 -36 -42 -35 -89 3 -131 l28 -32 144 -8 c231 -14 293 -34 354
-113 16 -22 309 -531 649 -1130 668 -1176 693 -1219 728 -1252 81 -76 157 -38
279 144 69 102 430 705 427 712 -2 4 -25 43 -53 88 -38 64 -52 80 -61 70 -6
-6 -85 -133 -174 -282 -90 -148 -169 -276 -175 -283 -10 -11 -20 -1 -50 55
l-37 68 31 55 c105 186 285 564 359 754 l19 50 15 -25 c9 -13 181 -321 383
-684 203 -363 377 -673 389 -688 37 -51 88 -72 159 -68 29 2 121 96 180 184
290 437 638 1326 744 1897 27 148 25 478 -5 628 -39 195 -103 350 -211 511
-146 219 -382 386 -564 399 l-68 5 -67 -70 c-37 -38 -105 -110 -152 -160 -47
-50 -113 -109 -146 -131 -93 -62 -97 -68 -91 -125 3 -37 11 -56 33 -78 39 -39
93 -47 234 -36 95 8 130 7 195 -6 273 -56 432 -262 486 -630 15 -104 15 -420
0 -557 -57 -497 -222 -1040 -403 -1327 -22 -35 -43 -63 -46 -63 -4 0 -199 361
-434 802 l-428 801 40 161 c58 236 72 322 77 506 11 358 -58 621 -235 890
-144 219 -406 399 -581 400 -54 0 -55 0 -120 -68z"/>
<path d="M5223 10249 c-57 -11 -78 -23 -300 -170 -263 -176 -292 -207 -263
-283 19 -50 51 -60 231 -72 153 -10 172 -13 226 -40 39 -20 69 -44 92 -75 18
-25 301 -516 627 -1090 722 -1270 700 -1233 731 -1270 63 -74 130 -72 205 9
62 66 98 122 322 497 l198 329 -18 31 c-10 16 -35 56 -55 89 l-37 59 -24 -39
c-14 -22 -91 -149 -173 -284 -81 -135 -153 -251 -160 -258 -9 -10 -144 228
-605 1065 -638 1159 -728 1318 -796 1408 -65 88 -114 110 -201 94z"/>
</g>
</svg>
