<?xml version="1.0" encoding="UTF-8"?>
<!DOCTYPE svg PUBLIC "-//W3C//DTD SVG 1.1//EN" "http://www.w3.org/Graphics/SVG/1.1/DTD/svg11.dtd">
<svg xmlns="http://www.w3.org/2000/svg" version="1.1" width="1563px" height="1563px" style="shape-rendering:geometricPrecision; text-rendering:geometricPrecision; image-rendering:optimizeQuality; fill-rule:evenodd; clip-rule:evenodd" xmlns:xlink="http://www.w3.org/1999/xlink">
<g><path style="opacity:0.972" fill="#696cff" d="M 816.5,479.5 C 827.685,479.172 838.019,482.006 847.5,488C 876.116,507.016 893.95,533.516 901,567.5C 907.62,604.053 904.786,639.886 892.5,675C 920.444,728.389 948.777,781.556 977.5,834.5C 987.343,821.15 994.843,806.483 1000,790.5C 1015.77,747.542 1023.44,703.209 1023,657.5C 1022.93,637.447 1017.93,618.78 1008,601.5C 998.873,588.514 986.373,581.014 970.5,579C 962.162,578.542 953.828,578.708 945.5,579.5C 931.871,580.964 925.704,574.964 927,561.5C 930.935,556.606 935.769,552.772 941.5,550C 951.206,540.962 960.206,531.295 968.5,521C 972.982,517.713 977.982,516.713 983.5,518C 1004.11,523.896 1020.95,535.396 1034,552.5C 1053.14,579.539 1062.31,609.706 1061.5,643C 1060.61,668.799 1056.11,693.965 1048,718.5C 1033.57,766.816 1013.9,812.816 989,856.5C 985.246,862.342 981.246,868.009 977,873.5C 968.003,883.797 958.669,884.13 949,874.5C 923.167,828.833 897.333,783.167 871.5,737.5C 860.296,765.907 846.963,793.24 831.5,819.5C 833.412,823.66 835.579,827.66 838,831.5C 850.333,811.833 862.667,792.167 875,772.5C 878.333,777.833 881.667,783.167 885,788.5C 886.187,790.044 886.52,791.711 886,793.5C 870.502,819.834 854.502,845.834 838,871.5C 834.799,875.036 831.299,878.203 827.5,881C 819.847,882.757 814.013,880.257 810,873.5C 765.92,795.671 721.586,718.004 677,640.5C 673.586,635.748 669.086,632.581 663.5,631C 652.589,629.162 641.589,628.162 630.5,628C 622.713,626.272 619.547,621.438 621,613.5C 622.167,611.667 623.333,609.833 624.5,608C 637.993,598.419 651.66,589.086 665.5,580C 671.498,576.5 677.831,573.833 684.5,572C 689.027,571.266 693.361,571.933 697.5,574C 704.545,580.377 710.045,587.877 714,596.5C 749.167,662.833 784.333,729.167 819.5,795.5C 820.002,796.521 820.668,796.688 821.5,796C 832.68,779.148 841.18,760.981 847,741.5C 850.25,730.661 853.417,719.828 856.5,709C 850.207,698.248 844.04,687.415 838,676.5C 833.752,667.577 826.752,662.577 817,661.5C 808.491,663.587 799.991,663.754 791.5,662C 789.43,661.052 787.93,659.552 787,657.5C 785.055,650.676 786.888,645.176 792.5,641C 801.521,635.156 810.188,628.822 818.5,622C 824.375,617.562 830.708,613.895 837.5,611C 843.825,608.665 849.825,609.332 855.5,613C 859.846,616.867 863.346,621.367 866,626.5C 866.846,604.054 861.846,583.054 851,563.5C 841.873,550.514 829.373,543.014 813.5,541C 802.169,541.074 790.836,541.074 779.5,541C 770.476,537.275 767.643,530.775 771,521.5C 785.353,512.657 797.353,501.324 807,487.5C 809.775,484.22 812.942,481.554 816.5,479.5 Z"/></g>
<g><path style="opacity:0.97" fill="#696cff" d="M 520.5,536.5 C 528.815,534.745 535.648,537.079 541,543.5C 543.333,546.833 545.667,550.167 548,553.5C 592.367,633.039 636.534,712.706 680.5,792.5C 681.167,793.833 681.833,793.833 682.5,792.5C 694.082,773 705.916,753.666 718,734.5C 721.667,740.5 725.333,746.5 729,752.5C 729.52,754.289 729.187,755.956 728,757.5C 714.333,780.167 700.667,802.833 687,825.5C 682.746,832.509 677.246,838.343 670.5,843C 666.606,845.259 662.939,844.926 659.5,842C 655.076,837.661 651.243,832.828 648,827.5C 605.173,751.175 561.839,675.175 518,599.5C 514.703,596.433 510.869,594.267 506.5,593C 495.589,591.162 484.589,590.162 473.5,590C 465.713,588.272 462.547,583.438 464,575.5C 466.128,572.37 468.628,569.537 471.5,567C 483.107,559.725 494.44,552.058 505.5,544C 510.324,540.921 515.324,538.421 520.5,536.5 Z"/></g>
</svg>
